<?xml version="1.0" encoding="UTF-8"?>
<svg xmlns="http://www.w3.org/2000/svg" version="1.1" viewBox="0 0 841.9 595.3">
  <defs>
    <style>
      .cls-1 {
        fill: #d32027;
      }

      .cls-2 {
        fill: #037d3f;
      }

      .cls-3 {
        fill: #fff;
      }

      .cls-4 {
        fill: #ffcd05;
      }

      .cls-5 {
        fill: #4c4c4c;
      }
    </style>
  </defs>
  <!-- Generator: Adobe Illustrator 28.7.0, SVG Export Plug-In . SVG Version: 1.2.0 Build 136)  -->
  <g>
    <g id="Layer_1">
      <g>
        <rect class="cls-3" x="41.2" y="293.3" width="513.9" height="191"/>
        <polygon class="cls-4" points="554.1 400.2 87.7 400.2 87.7 369.9 87.7 339.7 554.1 339.7 554.1 400.2"/>
        <path class="cls-2" d="M552.7,295.8v186.3H43.4v-186.3h509.3M557.3,291.2H38.9v195.4h518.4v-195.4Z"/>
        <path class="cls-5" d="M111.5,401.6c-6.4.4-12.6-1.8-17.5-6-4.4-4.2-6.7-10.2-6.4-16.2,0-1.4,0-3,.3-4.9.2-1.8.5-3.7.8-5.6,1.8-10,5.4-17.6,10.7-22.8,5.4-5.3,12.7-8.1,20.2-7.8,7.8-.3,15.4,3.1,20.3,9.2l-8.6,7.8c-1.4-1.7-3.1-3.1-5.1-4.1-2-.9-4.2-1.3-6.4-1.2-4.4-.2-8.6,1.6-11.6,4.8-3.4,4.5-5.5,9.7-6.1,15.3-.3,1.6-.5,3.2-.7,4.7-.2,1.6-.2,2.9-.2,4-.2,3,.8,6,2.8,8.3,2.1,2,5,3.1,7.9,2.9,3.4.1,6.8-1.1,9.4-3.4,2.6-2.7,4.3-6.1,4.7-9.9v-.6c0,0-12,0-12,0l1.9-11h25.3l-1.5,8.5c-3.2,18.6-12.7,28-28.2,28ZM172.4,401.6c-6.5.4-12.8-1.7-17.8-5.9-4.4-4.1-6.8-9.9-6.5-16,0-3.6.4-7.3,1.1-10.8,1.7-9.9,5.2-17.5,10.4-22.7,5.3-5.3,12.6-8.2,20.1-7.9,6.5-.4,12.8,1.7,17.8,5.9,4.4,4.1,6.8,9.9,6.5,16,0,3.6-.4,7.3-1.1,10.8-1.7,9.9-5.2,17.5-10.4,22.7-5.3,5.3-12.6,8.2-20.1,7.9ZM172.8,389.9c4.2.2,8.3-1.6,11-4.9,3.2-4.5,5.2-9.7,5.8-15.2.3-1.6.5-3.2.7-4.9.2-1.7.2-3.1.2-4.2.2-3-.8-5.9-2.9-8.1-2.3-2-5.2-2.9-8.2-2.8-4.2-.2-8.3,1.6-11,4.9-3.2,4.5-5.2,9.7-5.8,15.2-.3,1.6-.5,3.3-.7,4.9-.2,1.7-.2,3.1-.2,4.2-.2,3,.8,5.9,2.9,8.1,2.3,2,5.2,2.9,8.2,2.8h0Z"/>
        <path class="cls-2" d="M234.9,401.6c-6.4.4-12.6-1.8-17.5-6-4.4-4.2-6.7-10.2-6.4-16.2,0-1.4,0-3,.3-4.9s.5-3.7.8-5.6c1.8-10,5.4-17.6,10.7-22.8,5.4-5.3,12.7-8.1,20.2-7.8,7.8-.3,15.3,3.1,20.3,9.2l-8.6,7.8c-1.4-1.7-3.1-3.1-5.1-4.1-2-.9-4.2-1.3-6.4-1.2-4.4-.2-8.6,1.6-11.6,4.8-3.4,4.5-5.5,9.7-6.1,15.3-.3,1.6-.5,3.2-.7,4.7-.2,1.6-.2,2.9-.2,4-.2,3,.8,6,2.8,8.3,2.1,2,5,3.1,7.9,2.9,3.4.1,6.8-1.1,9.4-3.4,2.6-2.7,4.3-6.1,4.7-9.9v-.6c0,0-12,0-12,0l1.9-11h25.3l-1.5,8.5c-3.2,18.6-12.7,28-28.2,28ZM269.7,400.2l10.6-60.5h21.2c5.7-.3,11.3,1.2,16,4.4,3.7,2.7,5.9,7.1,5.8,11.7,0,.7,0,1.6-.1,2.6,0,1-.2,2-.4,3.1-.5,3.7-2,7.2-4.3,10.1-2.3,2.7-5.4,4.7-8.9,5.6l9.1,23h-14.8l-7.6-21.5h-9.4l-3.8,21.5h-13.4ZM299.8,350.6h-8.1l-3,17.2h8.3c3.1.2,6.2-.4,8.9-1.8,2.1-1.4,3.4-3.7,3.7-6.1.1-.4.2-.8.2-1.2v-.6c0-5-3.3-7.5-9.9-7.5ZM328.3,400.2l10.6-60.5h39.9l-2,11.6h-26.3l-2.3,12.7h23.7l-1.9,11.2h-23.7l-2.4,13.5h27.2l-2,11.6h-40.8ZM380.8,400.2l10.6-60.5h39.9l-2,11.6h-26.3l-2.3,12.7h23.7l-1.9,11.2h-23.7l-2.4,13.5h27.2l-2,11.6h-40.8ZM432.8,400.2l10.6-60.5h17.2l12.2,42.8h1.5l7.5-42.8h12.7l-10.6,60.5h-17.2l-12.2-42.8h-1.5l-7.5,42.8h-12.7Z"/>
      </g>
      <g>
        <path class="cls-4" d="M40.6,92h762.5v168.3H40.6V92Z"/>
        <g>
          <path class="cls-1" d="M40.6,208.3h103.1l-5.6,7.7H40.6v-7.7Z"/>
          <path class="cls-1" d="M40.6,194.1h113.6l-5.6,7.7H40.6v-7.7Z"/>
          <path class="cls-1" d="M40.6,222.5h92.6l-5.6,7.6H40.6v-7.6Z"/>
          <path class="cls-1" d="M803,216h-102.7l5.6-7.7h97.1v7.7Z"/>
          <path class="cls-1" d="M803,230.2h-113.2s5.6-7.6,5.6-7.6h107.5v7.6Z"/>
          <path class="cls-1" d="M716.4,194.1h86.6v7.7h-92.2s5.6-7.7,5.6-7.7Z"/>
          <path class="cls-1" d="M140.4,230.2l48.9-66.5h60.7c6.7,0,6.6,2.5,3.3,7-3.3,4.5-9,12.3-12.4,16.9-1.7,2.3-4.8,6.6,5.5,6.6h81.3c-6.8,9.3-28.7,36.1-68.1,36.1h-119.3Z"/>
          <path class="cls-1" d="M420.7,194.1l-26.5,36.1h-70s26.5-36.1,26.5-36.1h70Z"/>
          <path class="cls-1" d="M521.9,194.1l-26.5,36.1h-70s26.5-36.1,26.5-36.1h70Z"/>
          <path class="cls-1" d="M544.6,194.1s-5.1,7-7.6,10.3c-8.8,11.9-1,25.7,27.7,25.7h112.4l26.5-36.1h-159Z"/>
          <path class="cls-1" d="M174.7,122.3l-24.4,33.1h132.8c6.7,0,6.6,2.5,3.3,7-3.3,4.5-8.9,12.4-12.3,16.9-1.7,2.3-4.8,6.6,5.5,6.6h54.3s8.8-11.9,16.1-21.9c10-13.5.9-41.7-34.8-41.7h-140.5Z"/>
          <path class="cls-1" d="M527.9,185.9h-171.2l46.8-63.6h70l-26.8,36.5h31.2l26.8-36.5h70l-46.8,63.6Z"/>
          <path class="cls-1" d="M671.6,122.3l-46.8,63.6h-74.1s46.8-63.6,46.8-63.6h74.1Z"/>
        </g>
      </g>
    </g>
  </g>
</svg>