<?xml version="1.0" encoding="UTF-8"?>
<svg xmlns="http://www.w3.org/2000/svg" version="1.1" viewBox="0 0 841.9 595.3">
  <defs>
    <style>
      .cls-1 {
        fill: #d32027;
      }

      .cls-2 {
        fill: #037d3f;
      }

      .cls-3 {
        fill: #fff;
      }

      .cls-4 {
        fill: #ffcd05;
      }

      .cls-5 {
        fill: #4c4c4c;
      }
    </style>
  </defs>
  <!-- Generator: Adobe Illustrator 28.7.0, SVG Export Plug-In . SVG Version: 1.2.0 Build 136)  -->
  <g>
    <g id="Layer_1">
      <g>
        <rect class="cls-3" x="258.5" y="314.4" width="132.1" height="49.1"/>
        <polygon class="cls-4" points="390.4 341.9 270.5 341.9 270.5 334.1 270.5 326.4 390.4 326.4 390.4 341.9"/>
        <path class="cls-2" d="M390,315.1v47.9h-130.9v-47.9h130.9M391.2,313.9h-133.3v50.2h133.3v-50.2Z"/>
        <path class="cls-5" d="M276.6,342.3c-1.6,0-3.3-.5-4.5-1.5-1.1-1.1-1.7-2.6-1.6-4.2,0-.4,0-.8,0-1.2,0-.5.1-1,.2-1.4.5-2.6,1.4-4.5,2.7-5.9,1.4-1.4,3.3-2.1,5.2-2,2,0,3.9.8,5.2,2.4l-2.2,2c-.4-.4-.8-.8-1.3-1-.5-.2-1.1-.3-1.6-.3-1.1,0-2.2.4-3,1.2-.9,1.1-1.4,2.5-1.6,3.9,0,.4-.1.8-.2,1.2,0,.4,0,.7,0,1,0,.8.2,1.5.7,2.1.5.5,1.3.8,2,.7.9,0,1.8-.3,2.4-.9.7-.7,1.1-1.6,1.2-2.5h0c0-.1-3.1-.1-3.1-.1l.5-2.8h6.5l-.4,2.2c-.8,4.8-3.3,7.2-7.3,7.2ZM292.3,342.3c-1.7,0-3.3-.4-4.6-1.5-1.1-1.1-1.7-2.6-1.7-4.1,0-.9.1-1.9.3-2.8.4-2.5,1.3-4.5,2.7-5.8,1.4-1.4,3.2-2.1,5.2-2,1.7,0,3.3.4,4.6,1.5,1.1,1.1,1.7,2.6,1.7,4.1,0,.9-.1,1.9-.3,2.8-.4,2.5-1.3,4.5-2.7,5.8-1.4,1.4-3.2,2.1-5.2,2ZM292.3,339.3c1.1,0,2.1-.4,2.8-1.2.8-1.2,1.3-2.5,1.5-3.9,0-.4.1-.8.2-1.3,0-.4,0-.8,0-1.1,0-.8-.2-1.5-.7-2.1-.6-.5-1.3-.8-2.1-.7-1.1,0-2.1.4-2.8,1.2-.8,1.2-1.3,2.5-1.5,3.9,0,.4-.1.8-.2,1.3,0,.4,0,.8,0,1.1,0,.8.2,1.5.7,2.1.6.5,1.3.8,2.1.7h0Z"/>
        <path class="cls-2" d="M308.3,342.3c-1.6,0-3.3-.5-4.5-1.5-1.1-1.1-1.7-2.6-1.6-4.2,0-.4,0-.8,0-1.2s.1-1,.2-1.4c.5-2.6,1.4-4.5,2.7-5.9,1.4-1.4,3.3-2.1,5.2-2,2,0,3.9.8,5.2,2.4l-2.2,2c-.4-.4-.8-.8-1.3-1-.5-.2-1.1-.3-1.6-.3-1.1,0-2.2.4-3,1.2-.9,1.1-1.4,2.5-1.6,3.9,0,.4-.1.8-.2,1.2,0,.4,0,.7,0,1,0,.8.2,1.5.7,2.1.5.5,1.3.8,2,.7.9,0,1.8-.3,2.4-.9.7-.7,1.1-1.6,1.2-2.5h0c0-.1-3.1-.1-3.1-.1l.5-2.8h6.5l-.4,2.2c-.8,4.8-3.3,7.2-7.3,7.2ZM317.2,341.9l2.7-15.6h5.4c1.5,0,2.9.3,4.1,1.1,1,.7,1.5,1.8,1.5,3,0,.2,0,.4,0,.7,0,.3,0,.5-.1.8-.1.9-.5,1.8-1.1,2.6-.6.7-1.4,1.2-2.3,1.4l2.3,5.9h-3.8l-2-5.5h-2.4l-1,5.5h-3.4ZM325,329.2h-2.1l-.8,4.4h2.1c.8,0,1.6-.1,2.3-.5.5-.4.9-.9.9-1.6,0,0,0-.2,0-.3h0c0-1.4-.8-2.1-2.5-2.1ZM332.3,341.9l2.7-15.6h10.3l-.5,3h-6.8l-.6,3.3h6.1l-.5,2.9h-6.1l-.6,3.5h7l-.5,3h-10.5ZM345.8,341.9l2.7-15.6h10.3l-.5,3h-6.8l-.6,3.3h6.1l-.5,2.9h-6.1l-.6,3.5h7l-.5,3h-10.5ZM359.2,341.9l2.7-15.6h4.4l3.1,11h.4l1.9-11h3.3l-2.7,15.6h-4.4l-3.1-11h-.4l-1.9,11h-3.3Z"/>
      </g>
      <g>
        <path class="cls-4" d="M258.4,262.7h196v43.3h-196v-43.3Z"/>
        <g>
          <path class="cls-1" d="M258.4,292.6h26.5l-1.4,2h-25.1v-2Z"/>
          <path class="cls-1" d="M258.4,288.9h29.2l-1.5,2h-27.7v-2Z"/>
          <path class="cls-1" d="M258.4,296.2h23.8l-1.4,2h-22.4v-2Z"/>
          <path class="cls-1" d="M454.4,294.6h-26.4l1.4-2h25v2Z"/>
          <path class="cls-1" d="M454.4,298.2h-29.1s1.4-2,1.4-2h27.6v2Z"/>
          <path class="cls-1" d="M432.1,288.9h22.3v2h-23.7s1.4-2,1.4-2Z"/>
          <path class="cls-1" d="M284,298.2l12.6-17.1h15.6c1.7,0,1.7.7.9,1.8-.9,1.2-2.3,3.2-3.2,4.3-.4.6-1.2,1.7,1.4,1.7h20.9c-1.7,2.4-7.4,9.3-17.5,9.3h-30.7Z"/>
          <path class="cls-1" d="M356.1,288.9l-6.8,9.3h-18s6.8-9.3,6.8-9.3h18Z"/>
          <path class="cls-1" d="M382.1,288.9l-6.8,9.3h-18s6.8-9.3,6.8-9.3h18Z"/>
          <path class="cls-1" d="M387.9,288.9s-1.3,1.8-2,2.7c-2.3,3.1-.3,6.6,7.1,6.6h28.9l6.8-9.3h-40.9Z"/>
          <path class="cls-1" d="M292.8,270.5l-6.3,8.5h34.1c1.7,0,1.7.7.9,1.8-.9,1.2-2.3,3.2-3.2,4.4-.4.6-1.2,1.7,1.4,1.7h14s2.2-3.1,4.1-5.6c2.6-3.5.2-10.7-8.9-10.7h-36.1Z"/>
          <path class="cls-1" d="M383.6,286.8h-44l12-16.3h18l-6.9,9.4h8l6.9-9.4h18l-12,16.3Z"/>
          <path class="cls-1" d="M420.6,270.5l-12,16.3h-19.1s12-16.3,12-16.3h19Z"/>
        </g>
      </g>
    </g>
  </g>
</svg>