<svg width="130" height="140" viewBox="0 0 130 140" fill="none" xmlns="http://www.w3.org/2000/svg">
<g filter="url(#filter0_bd_5001_3)">
<mask id="path-1-inside-1_5001_3" fill="white">
<path fill-rule="evenodd" clip-rule="evenodd" d="M20 4.99438C14.4772 4.99438 10 9.47155 10 14.9944V96.4232C10 101.946 14.4771 106.423 20 106.423H38.5262L58.0428 122.678C61.684 125.711 66.9538 125.772 70.6638 122.824L91.303 106.423H110C115.523 106.423 120 101.946 120 96.4232V14.9944C120 9.47154 115.523 4.99438 110 4.99438H20Z"/>
</mask>
<path fill-rule="evenodd" clip-rule="evenodd" d="M20 4.99438C14.4772 4.99438 10 9.47155 10 14.9944V96.4232C10 101.946 14.4771 106.423 20 106.423H38.5262L58.0428 122.678C61.684 125.711 66.9538 125.772 70.6638 122.824L91.303 106.423H110C115.523 106.423 120 101.946 120 96.4232V14.9944C120 9.47154 115.523 4.99438 110 4.99438H20Z" fill="white" fill-opacity="0.45" shape-rendering="crispEdges"/>
<path d="M38.5262 106.423L39.1661 105.655L38.8881 105.423H38.5262V106.423ZM58.0428 122.678L57.4028 123.447L57.4028 123.447L58.0428 122.678ZM70.6638 122.824L71.2859 123.606L71.2859 123.606L70.6638 122.824ZM91.303 106.423V105.423H90.954L90.6809 105.64L91.303 106.423ZM11 14.9944C11 10.0238 15.0294 5.99438 20 5.99438V3.99438C13.9249 3.99438 9 8.91926 9 14.9944H11ZM11 96.4232V14.9944H9V96.4232H11ZM20 105.423C15.0294 105.423 11 101.394 11 96.4232H9C9 102.498 13.9249 107.423 20 107.423V105.423ZM38.5262 105.423H20V107.423H38.5262V105.423ZM58.6827 121.91L39.1661 105.655L37.8862 107.192L57.4028 123.447L58.6827 121.91ZM70.0417 122.041C66.7026 124.694 61.9598 124.639 58.6827 121.91L57.4028 123.447C61.4081 126.783 67.2049 126.849 71.2859 123.606L70.0417 122.041ZM90.6809 105.64L70.0417 122.041L71.2859 123.606L91.9251 107.206L90.6809 105.64ZM110 105.423H91.303V107.423H110V105.423ZM119 96.4232C119 101.394 114.971 105.423 110 105.423V107.423C116.075 107.423 121 102.498 121 96.4232H119ZM119 14.9944V96.4232H121V14.9944H119ZM110 5.99438C114.971 5.99438 119 10.0238 119 14.9944H121C121 8.91925 116.075 3.99438 110 3.99438V5.99438ZM20 5.99438H110V3.99438H20V5.99438Z" fill="white" fill-opacity="0.4" mask="url(#path-1-inside-1_5001_3)"/>
</g>
<defs>
<filter id="filter0_bd_5001_3" x="-6.2" y="-11.2056" width="142.4" height="152.4" filterUnits="userSpaceOnUse" color-interpolation-filters="sRGB">
<feFlood flood-opacity="0" result="BackgroundImageFix"/>
<feGaussianBlur in="BackgroundImageFix" stdDeviation="8.1"/>
<feComposite in2="SourceAlpha" operator="in" result="effect1_backgroundBlur_5001_3"/>
<feColorMatrix in="SourceAlpha" type="matrix" values="0 0 0 0 0 0 0 0 0 0 0 0 0 0 0 0 0 0 127 0" result="hardAlpha"/>
<feOffset dy="5"/>
<feGaussianBlur stdDeviation="5"/>
<feComposite in2="hardAlpha" operator="out"/>
<feColorMatrix type="matrix" values="0 0 0 0 0 0 0 0 0 0 0 0 0 0 0 0 0 0 0.25 0"/>
<feBlend mode="normal" in2="effect1_backgroundBlur_5001_3" result="effect2_dropShadow_5001_3"/>
<feBlend mode="normal" in="SourceGraphic" in2="effect2_dropShadow_5001_3" result="shape"/>
</filter>
</defs>
</svg>
